<svg width="657" height="650" viewBox="0 0 657 650" fill="none" xmlns="http://www.w3.org/2000/svg">
<path d="M0 0.600006C64.2255 26.7345 128.451 52.8689 188.422 76.9774C248.595 101.289 304.514 123.574 366.714 152.139C429.116 180.907 497.596 215.956 531.026 271.264C564.658 326.369 563.037 401.531 578.03 469.197C593.022 536.863 624.831 596.83 656.438 657H0V0.600006Z" fill="#F3E8E1"/>
<path d="M0 82.65C56.1214 105.543 112.243 128.436 164.92 149.506C217.394 170.778 266.424 190.227 320.925 215.348C375.426 240.47 435.396 271.061 464.774 319.481C493.949 367.698 492.733 433.54 505.903 492.697C519.072 551.854 546.626 604.326 574.383 657H0V82.65Z" fill="#F6D8C4"/>
<path d="M0 164.7C48.2198 184.351 96.237 203.8 141.418 222.034C186.396 240.267 228.335 256.88 275.136 278.354C321.735 299.829 373.197 326.166 398.32 367.698C423.443 409.027 422.227 465.347 433.573 516.198C444.919 566.846 468.623 612.024 492.328 657H0V164.7Z" fill="#F8C7A8"/>
<path d="M0 246.75C40.1156 263.16 80.2313 279.367 117.713 294.562C155.397 309.554 190.245 323.533 229.145 341.563C268.248 359.391 310.997 381.474 331.866 415.915C352.936 450.356 351.923 497.357 361.243 539.699C370.766 581.838 390.418 619.52 410.273 657H0V246.75Z" fill="#F7B78C"/>
<path d="M0 328.8C32.0115 341.766 64.2255 354.934 94.2109 367.09C124.196 379.043 152.358 390.186 183.357 404.57C214.558 418.954 248.798 436.579 265.614 464.132C282.228 491.684 281.417 529.367 289.116 562.997C296.613 596.83 312.416 627.016 328.219 657H0V328.8Z" fill="#F6A770"/>
<path d="M0 410.85C24.1099 420.574 48.2198 430.501 70.7089 439.416C93.1979 448.532 114.269 456.838 137.568 467.778C160.868 478.516 186.598 491.684 199.16 512.349C211.721 533.013 211.114 561.174 216.786 586.498C222.459 612.024 234.21 634.512 246.164 657H0V410.85Z" fill="#F29754"/>
<path d="M0 492.9C16.0057 499.383 32.0115 505.866 47.2068 511.944C62.1995 518.022 76.1792 523.694 91.7797 530.785C107.178 537.876 124.399 546.79 132.706 560.566C141.215 574.342 140.81 593.183 144.457 609.999C148.306 627.016 156.208 642.008 164.109 657H0V492.9Z" fill="#EE8737"/>
<path d="M0 574.95C8.10417 578.192 16.0057 581.433 23.5021 584.472C30.9984 587.511 38.0896 590.347 45.7885 593.994C53.6901 597.438 62.1995 601.895 66.4542 608.783C70.5063 615.671 70.3037 624.99 72.3297 633.499C74.1531 642.008 78.0026 649.504 82.0547 657H0V574.95Z" fill="#EB7F26"/>
</svg>
