<svg width="632" height="650" viewBox="0 0 632 650" fill="none" xmlns="http://www.w3.org/2000/svg">
<path d="M657 649.4C588.722 641.702 520.647 634.206 454.801 615.365C388.955 596.523 325.337 566.54 271.242 523.995C216.944 481.653 171.763 426.953 140.765 368.202C109.564 309.247 92.3422 246.443 71.2713 183.234C50.2005 120.228 25.2802 56.6141 0.5625 -7H657V649.4Z" fill="#F3E8E1"/>
<path d="M657 567.35C597.434 560.664 537.666 553.979 480.127 537.569C422.384 521.159 366.871 494.822 319.461 457.747C271.849 420.47 232.544 372.659 205.193 321.2C178.044 269.741 162.848 214.839 144.411 159.531C125.974 104.223 104.296 48.713 82.6172 -7H657V567.35Z" fill="#F6D8C4"/>
<path d="M657 485.3C605.944 479.627 554.685 473.955 505.25 459.773C456.017 445.592 408.405 423.104 367.681 391.297C326.958 359.49 293.123 318.364 269.823 274.401C246.321 230.236 233.355 183.032 217.754 135.828C201.951 88.4211 183.311 40.6093 164.672 -7H657V485.3Z" fill="#F8C7A8"/>
<path d="M657 403.25C614.453 398.59 571.704 393.728 530.575 381.978C489.446 370.227 449.736 351.386 415.901 324.847C381.864 298.307 353.702 264.271 334.252 227.4C314.802 190.73 304.064 151.427 290.894 111.922C277.725 72.4163 262.327 32.7081 246.727 -7H657V403.25Z" fill="#F7B78C"/>
<path d="M657 321.2C622.963 317.351 588.722 313.502 555.901 304.182C522.876 294.66 491.27 279.669 464.121 258.599C436.972 237.327 414.483 209.977 398.882 180.601C383.282 151.225 374.57 119.823 364.034 88.2185C353.499 56.6141 341.14 24.807 328.781 -7H657V321.2Z" fill="#F6A770"/>
<path d="M657 239.15C631.472 236.314 605.944 233.477 581.226 226.387C556.508 219.296 532.601 207.951 512.341 192.149C491.878 176.144 475.061 155.682 463.31 133.599C451.762 111.719 445.279 88.0159 437.377 64.3126C429.476 40.6093 420.156 16.9059 410.836 -7H657V239.15Z" fill="#F29754"/>
<path d="M657 157.1C639.981 155.277 622.963 153.251 606.349 148.591C589.938 143.932 574.135 136.436 560.56 125.698C546.986 115.163 535.64 101.387 527.941 86.8004C520.04 72.0111 515.785 56.4115 510.517 40.6093C505.249 24.807 499.171 8.80222 492.891 -7H657V157.1Z" fill="#EE8737"/>
<path d="M657 75.05C648.491 74.037 639.981 73.2267 631.674 70.7956C623.57 68.3645 615.466 64.7178 608.78 59.4504C601.892 53.9804 596.421 47.2948 592.369 39.7989C588.52 32.5056 586.494 24.6044 583.86 16.7033C581.226 8.80222 577.984 0.901112 574.945 -7H657V75.05Z" fill="#EB7F26"/>
</svg>
